<?xml version="1.0" encoding="UTF-8" standalone="no"?>
<svg
   xmlns:dc="http://purl.org/dc/elements/1.1/"
   xmlns:cc="http://creativecommons.org/ns#"
   xmlns:rdf="http://www.w3.org/1999/02/22-rdf-syntax-ns#"
   xmlns:svg="http://www.w3.org/2000/svg"
   xmlns="http://www.w3.org/2000/svg"
   xmlns:sodipodi="http://sodipodi.sourceforge.net/DTD/sodipodi-0.dtd"
   xmlns:inkscape="http://www.inkscape.org/namespaces/inkscape"
   height="50"
   viewBox="0 0 23.794144 23.794099"
   width="50"
   version="1.1"
   id="svg6"
   sodipodi:docname="assess.svg"
   style="fill:#ffffff"
   inkscape:version="0.92.1 r15371">
  <metadata
     id="metadata12">
    <rdf:RDF>
      <cc:Work
         rdf:about="">
        <dc:format>image/svg+xml</dc:format>
        <dc:type
           rdf:resource="http://purl.org/dc/dcmitype/StillImage" />
        <dc:title></dc:title>
      </cc:Work>
    </rdf:RDF>
  </metadata>
  <defs
     id="defs10" />
  <sodipodi:namedview
     pagecolor="#ffffff"
     bordercolor="#666666"
     borderopacity="1"
     objecttolerance="10"
     gridtolerance="10"
     guidetolerance="10"
     inkscape:pageopacity="0"
     inkscape:pageshadow="2"
     inkscape:window-width="732"
     inkscape:window-height="480"
     id="namedview8"
     showgrid="false"
     units="in"
     fit-margin-top="0"
     fit-margin-left="0"
     fit-margin-right="0"
     fit-margin-bottom="0"
     inkscape:zoom="9.8333333"
     inkscape:cx="10.481625"
     inkscape:cy="8.3608285"
     inkscape:window-x="0"
     inkscape:window-y="0"
     inkscape:window-maximized="0"
     inkscape:current-layer="svg6" />
  <path
     d="M -0.70834028,3.03745 H 23.29166 v 24 H -0.70834028 Z"
     id="path2"
     inkscape:connector-curvature="0"
     style="fill:none" />
  <path
     d="M 10.482858,0.58335 7.5271517,3.53905 C 6.409923,3.01575 5.0381358,3.19965 4.118897,4.11885 3.1996582,5.03815 3.0158104,6.40995 3.5390694,7.52715 l -2.95570628,2.9557 c -0.7778175,0.7778 -0.7778175,2.0506 0,2.8284 l 9.89949488,9.8995 c 0.777818,0.7778 2.05061,0.7778 2.828427,0 l 9.899495,-9.8995 c 0.777818,-0.7778 0.777818,-2.0506 0,-2.8284 l -9.899495,-9.8995 c -0.777817,-0.7778 -2.050609,-0.7778 -2.828427,0 z m -4.9497474,4.9497 c 0.3889087,-0.3889 1.0253048,-0.3889 1.4142135,0 0.3889087,0.389 0.3889087,1.0254 0,1.4143 -0.3889087,0.3889 -1.0253048,0.3889 -1.4142135,0 -0.3889088,-0.3889 -0.3889088,-1.0253 0,-1.4143 z m 11.3137084,8.4853 -4.949747,4.9498 -1.414214,-1.4142 4.949748,-4.9498 z m -0.707107,-4.9497 -7.0710675,7.071 -1.4142136,-1.4142 7.0710681,-7.071 z m -2.828427,-2.8284 -7.0710677,7.071 -1.4142135,-1.4142 7.0710682,-7.0711 z"
     id="path4"
     inkscape:connector-curvature="0" />
</svg>
