<?xml version="1.0" encoding="UTF-8" standalone="no"?>
<svg
   xmlns:dc="http://purl.org/dc/elements/1.1/"
   xmlns:cc="http://creativecommons.org/ns#"
   xmlns:rdf="http://www.w3.org/1999/02/22-rdf-syntax-ns#"
   xmlns:svg="http://www.w3.org/2000/svg"
   xmlns="http://www.w3.org/2000/svg"
   xmlns:sodipodi="http://sodipodi.sourceforge.net/DTD/sodipodi-0.dtd"
   xmlns:inkscape="http://www.inkscape.org/namespaces/inkscape"
   height="50"
   viewBox="0 0 20.847277 20.847275"
   width="50"
   version="1.1"
   id="svg6"
   sodipodi:docname="map.svg"
   style="fill:#ffffff"
   inkscape:version="0.92.1 r15371">
  <metadata
     id="metadata12">
    <rdf:RDF>
      <cc:Work
         rdf:about="">
        <dc:format>image/svg+xml</dc:format>
        <dc:type
           rdf:resource="http://purl.org/dc/dcmitype/StillImage" />
        <dc:title></dc:title>
      </cc:Work>
    </rdf:RDF>
  </metadata>
  <defs
     id="defs10" />
  <sodipodi:namedview
     pagecolor="#ffffff"
     bordercolor="#666666"
     borderopacity="1"
     objecttolerance="10"
     gridtolerance="10"
     guidetolerance="10"
     inkscape:pageopacity="0"
     inkscape:pageshadow="2"
     inkscape:window-width="732"
     inkscape:window-height="480"
     id="namedview8"
     showgrid="false"
     units="mm"
     fit-margin-top="0"
     fit-margin-left="0"
     fit-margin-right="0"
     fit-margin-bottom="0"
     inkscape:zoom="9.8333333"
     inkscape:cx="8.4196582"
     inkscape:cy="6.020815"
     inkscape:window-x="0"
     inkscape:window-y="0"
     inkscape:window-maximized="0"
     inkscape:current-layer="svg6" />
  <path
     d="m 10.240674,1.755375 c -2.3405228,-2.3405 -6.1447578,-2.3405 -8.4852812,0 -2.3405237,2.3405 -2.3405237,6.1448 -2e-7,8.4853 3.1819805,3.182 12.0208154,3.5355 12.0208154,3.5355 0,0 -0.353554,-8.8388 -3.535534,-12.0208 z m -5.6568541,5.6569 c -0.7778175,-0.7778 -0.7778175,-2.0506 0,-2.8285 0.7778175,-0.7778 2.0506093,-0.7778 2.8284273,0 0.777817,0.7779 0.784888,2.0436 0,2.8285 -0.777818,0.7778 -2.0506098,0.7778 -2.8284273,0 z m 4.9497473,12.0208 1.4142138,1.4142 9.899495,-9.8995 -1.414214,-1.4142 z"
     id="path2"
     inkscape:connector-curvature="0" />
  <path
     d="M -3.5803418,2.826475 H 20.419658 v 24 H -3.5803418 Z"
     id="path4"
     inkscape:connector-curvature="0"
     style="fill:none" />
</svg>
