<?xml version="1.0" encoding="UTF-8" standalone="no"?>
<svg
   xmlns:dc="http://purl.org/dc/elements/1.1/"
   xmlns:cc="http://creativecommons.org/ns#"
   xmlns:rdf="http://www.w3.org/1999/02/22-rdf-syntax-ns#"
   xmlns:svg="http://www.w3.org/2000/svg"
   xmlns="http://www.w3.org/2000/svg"
   xmlns:sodipodi="http://sodipodi.sourceforge.net/DTD/sodipodi-0.dtd"
   xmlns:inkscape="http://www.inkscape.org/namespaces/inkscape"
   height="50"
   viewBox="0 0 16 22"
   width="50"
   version="1.1"
   id="svg6"
   sodipodi:docname="retake.svg"
   style="fill:#932222"
   inkscape:version="0.92.1 r15371">
  <metadata
     id="metadata12">
    <rdf:RDF>
      <cc:Work
         rdf:about="">
        <dc:format>image/svg+xml</dc:format>
        <dc:type
           rdf:resource="http://purl.org/dc/dcmitype/StillImage" />
        <dc:title></dc:title>
      </cc:Work>
    </rdf:RDF>
  </metadata>
  <defs
     id="defs10" />
  <sodipodi:namedview
     pagecolor="#ffffff"
     bordercolor="#666666"
     borderopacity="1"
     objecttolerance="10"
     gridtolerance="10"
     guidetolerance="10"
     inkscape:pageopacity="0"
     inkscape:pageshadow="2"
     inkscape:window-width="732"
     inkscape:window-height="480"
     id="namedview8"
     showgrid="false"
     fit-margin-top="0"
     fit-margin-left="0"
     fit-margin-right="0"
     fit-margin-bottom="0"
     inkscape:zoom="9.8333333"
     inkscape:cx="8"
     inkscape:cy="11"
     inkscape:window-x="0"
     inkscape:window-y="0"
     inkscape:window-maximized="0"
     inkscape:current-layer="svg6" />
  <path
     d="M 8,5 V 8 L 12,4 8,0 v 3 c -4.42,0 -8,3.58 -8,8 0,1.57 0.46,3.03 1.24,4.26 L 2.7,13.8 C 2.25,12.97 2,12.01 2,11 2,7.69 4.69,5 8,5 Z M 14.76,6.74 13.3,8.2 c 0.44,0.84 0.7,1.79 0.7,2.8 0,3.31 -2.69,6 -6,6 v -3 l -4,4 4,4 v -3 c 4.42,0 8,-3.58 8,-8 0,-1.57 -0.46,-3.03 -1.24,-4.26 z"
     id="path2"
     inkscape:connector-curvature="0" />
  <path
     d="M -4,-1 H 20 V 23 H -4 Z"
     id="path4"
     inkscape:connector-curvature="0"
     style="fill:none" />
</svg>
